Coordinates
version=1
nRows=58
nColumns=6
inDegrees=yes

Units are S.I. units (second, meters, Newtons, ...)
If the header above contains a line with 'inDegrees', this indicates whether rotational values are in degrees (yes) or radians (no).

endheader
time	foot_tx	hip_flexion_r	knee_angle_r	ankle_angle_r	lumbar
     14.40000000	      0.20308139	     62.26188037	    -76.66562047	      5.11798160	    -12.68623636
     14.41000000	      0.20307834	     62.28502500	    -76.66534463	      5.12258093	    -12.70464167
     14.42000000	      0.20307349	     62.30900493	    -76.66391665	      5.12701047	    -12.72265007
     14.43000000	      0.20306851	     62.33448570	    -76.66127043	      5.13104805	    -12.74073610
     14.44000000	      0.20306371	     62.36217180	    -76.65720673	      5.13461785	    -12.75951494
     14.45000000	      0.20307882	     62.43204085	    -76.64838431	      5.13072022	    -12.73354036
     14.46000000	      0.20306850	     62.46294478	    -76.64399627	      5.13527436	    -12.75827175
     14.47000000	      0.20309132	     62.50110476	    -76.62979490	      5.13148680	    -12.78310802
     14.48000000	      0.20310363	     62.54390819	    -76.61835083	      5.13010405	    -12.81008416
     14.49000000	      0.20311579	     62.59223644	    -76.60600474	      5.12831332	    -12.84011212
     14.50000000	      0.20312237	     62.66703078	    -76.59565493	      5.12631976	    -12.84901363
     14.51000000	      0.20313467	     62.72161142	    -76.58215117	      5.12447330	    -12.89292233
     14.52000000	      0.20314378	     62.78306106	    -76.56862847	      5.12318453	    -12.94075399
     14.53000000	      0.20315107	     62.85110115	    -76.55569483	      5.12277812	    -12.99321514
     14.54000000	      0.20315231	     62.92637017	    -76.54310130	      5.12356952	    -13.05133594
     14.55000000	      0.20314762	     63.00832577	    -76.53157982	      5.12608965	    -13.11641976
     14.56000000	      0.20313713	     63.09718939	    -76.52103904	      5.13032561	    -13.18968623
     14.57000000	      0.20312294	     63.19340888	    -76.51109572	      5.13582442	    -13.27205405
     14.58000000	      0.20310887	     63.29746712	    -76.50114323	      5.14184491	    -13.36436539
     14.59000000	      0.20309587	     63.40988072	    -76.49045141	      5.14760077	    -13.46814314
     14.60000000	      0.20308959	     63.53217460	    -76.47911568	      5.15274221	    -13.58222391
     14.61000000	      0.20309083	     63.66691403	    -76.46676533	      5.15666148	    -13.70523614
     14.62000000	      0.20309975	     63.81570943	    -76.45283432	      5.15889632	    -13.83655400
     14.63000000	      0.20311318	     63.97911689	    -76.43712758	      5.15971510	    -13.97624061
     14.64000000	      0.20312638	     64.15722177	    -76.41993769	      5.16013143	    -14.12395635
     14.65000000	      0.20313472	     64.35046238	    -76.40177561	      5.16121314	    -14.27912830
     14.66000000	      0.20313593	     64.56027521	    -76.38270172	      5.16320700	    -14.44091703
     14.67000000	      0.20312478	     64.83221241	    -76.36712169	      5.16506548	    -14.55562548
     14.68000000	      0.20311425	     65.06922617	    -76.34571775	      5.16924954	    -14.74008775
     14.69000000	      0.20309490	     65.39164465	    -76.32851091	      5.17170318	    -14.85064560
     14.70000000	      0.20307457	     65.70637741	    -76.30947248	      5.17738630	    -14.99630350
     14.71000000	      0.20305196	     66.04220881	    -76.29089912	      5.18574431	    -15.14160863
     14.72000000	      0.20302294	     66.39877396	    -76.27441346	      5.19846834	    -15.28652257
     14.73000000	      0.20299429	     66.77213154	    -76.25946306	      5.21535273	    -15.43612977
     14.74000000	      0.20296008	     67.16460892	    -76.24772855	      5.23734907	    -15.58957122
     14.75000000	      0.20292930	     67.57551099	    -76.23746334	      5.26282281	    -15.74977485
     14.76000000	      0.20289829	     68.00725392	    -76.22950719	      5.29230682	    -15.91586002
     14.77000000	      0.20286906	     68.46008089	    -76.22351394	      5.32559405	    -16.08906954
     14.78000000	      0.20283496	     68.93395620	    -76.22114580	      5.36426648	    -16.27105621
     14.79000000	      0.20280035	     69.43036745	    -76.22107418	      5.40703144	    -16.46272682
     14.80000000	      0.20275235	     69.94813554	    -76.22663750	      5.45684744	    -16.66779469
     14.81000000	      0.20269828	     70.49162662	    -76.23497462	      5.51117589	    -16.88430773
     14.82000000	      0.20263061	     71.06123487	    -76.24707210	      5.57135461	    -17.11317159
     14.83000000	      0.20255924	     71.66200421	    -76.26066364	      5.63559554	    -17.34757361
     14.84000000	      0.20248360	     72.29594520	    -76.27520328	      5.70379908	    -17.58362615
     14.85000000	      0.20239729	     72.96054858	    -76.29182972	      5.77798126	    -17.82231817
     14.86000000	      0.20231516	     73.66595343	    -76.30554575	      5.85373115	    -18.04862238
     14.87000000	      0.20223441	     74.41389874	    -76.31629192	      5.93201006	    -18.25553679
     14.88000000	      0.20216178	     75.21046957	    -76.32223050	      6.01148927	    -18.43088239
     14.89000000	      0.20207985	     76.05337748	    -76.32783886	      6.09708203	    -18.57237112
     14.90000000	      0.20200249	     76.94934516	    -76.33203119	      6.18663341	    -18.66942881
     14.91000000	      0.20192708	     77.89271016	    -76.33823223	      6.28315142	    -18.72475069
     14.92000000	      0.20185145	     78.88176500	    -76.34934718	      6.38880071	    -18.73689110
     14.93000000	      0.20176236	     79.90359508	    -76.36955755	      6.50909046	    -18.71454747
     14.94000000	      0.20167850	     80.96081176	    -76.39748834	      6.64359642	    -18.64536874
     14.95000000	      0.20157800	     82.04608853	    -76.43338430	      6.79771433	    -18.52974151
     14.96000000	      0.20148848	     83.15827100	    -76.47297810	      6.97042361	    -18.35638249
     14.97000000	      0.20140637	     84.29402241	    -76.51368396	      7.16362519	    -18.11936126
